<?xml version="1.0" standalone="no"?><svg xmlns="http://www.w3.org/2000/svg" viewBox="0 0 1440 320"><path fill="#ffffff" fill-opacity="1" d="M0,64L30,64C60,64,120,64,180,74.7C240,85,300,107,360,133.3C420,160,480,192,540,197.3C600,203,660,181,720,149.3C780,117,840,75,900,96C960,117,1020,203,1080,208C1140,213,1200,139,1260,106.7C1320,75,1380,85,1410,90.7L1440,96L1440,320L1410,320C1380,320,1320,320,1260,320C1200,320,1140,320,1080,320C1020,320,960,320,900,320C840,320,780,320,720,320C660,320,600,320,540,320C480,320,420,320,360,320C300,320,240,320,180,320C120,320,60,320,30,320L0,320Z"></path></svg>